ffmpeg started on 2016-12-02 at 23:34:22
Report written to "Output/x264/results/ffmpeg/old_town_cross_2160p50veryslow15000k.log"
Command line:
Tools/ffmpeg/ffmpeg -benchmark -y -i Input/y4m/old_town_cross_2160p50.y4m -c:v libx264 -preset veryslow -b:v 15000k -an Output/x264/encoded/old_town_cross_2160p50veryslow15000k.mkv
ffmpeg version N-82227-gdb23fde Copyright (c) 2000-2016 the FFmpeg developers
  built with gcc 5.4.0 (Ubuntu 5.4.0-6ubuntu1~16.04.2) 20160609
  configuration: --prefix=/home/jaroslav/ffmpeg_build --pkg-config-flags=--static --extra-cflags=-I/home/jaroslav/ffmpeg_build/include --extra-ldflags=-L/home/jaroslav/ffmpeg_build/lib --bindir=/home/jaroslav/bin --enable-gpl --enable-libass --enable-libfdk-aac --enable-libfreetype --enable-libmp3lame --enable-libopus --enable-libtheora --enable-libvorbis --enable-libvpx --enable-libx264 --enable-libx265 --enable-nvenc --enable-libmfx --enable-libxvid --enable-libgsm --enable-libopencore-amrnb --enable-version3 --enable-nonfree
  libavutil      55. 35.100 / 55. 35.100
  libavcodec     57. 66.101 / 57. 66.101
  libavformat    57. 57.100 / 57. 57.100
  libavdevice    57.  2.100 / 57.  2.100
  libavfilter     6. 66.100 /  6. 66.100
  libswscale      4.  3.100 /  4.  3.100
  libswresample   2.  4.100 /  2.  4.100
  libpostproc    54.  2.100 / 54.  2.100
Input #0, yuv4mpegpipe, from 'Input/y4m/old_town_cross_2160p50.y4m':
  Duration: 00:00:10.00, start: 0.000000, bitrate: 4976642 kb/s
    Stream #0:0: Video: rawvideo (I420 / 0x30323449), yuv420p(progressive), 3840x2160, SAR 1:1 DAR 16:9, 50 fps, 50 tbr, 50 tbn, 50 tbc
[libx264 @ 0x3a0c120] using SAR=1/1
[libx264 @ 0x3a0c120] DPB size (16 frames, 518400 mbs) > level limit (5 frames, 184320 mbs)
[libx264 @ 0x3a0c120] using cpu capabilities: MMX2 SSE2Fast SSSE3 SSE4.2 AVX FMA3 AVX2 LZCNT BMI2
[libx264 @ 0x3a0c120] profile High, level 5.2
[libx264 @ 0x3a0c120] 264 - core 148 - H.264/MPEG-4 AVC codec - Copyleft 2003-2016 - http://www.videolan.org/x264.html - options: cabac=1 ref=16 deblock=1:0:0 analyse=0x3:0x133 me=umh subme=10 psy=1 psy_rd=1.00:0.00 mixed_ref=1 me_range=24 chroma_me=1 trellis=2 8x8dct=1 cqm=0 deadzone=21,11 fast_pskip=1 chroma_qp_offset=-2 threads=6 lookahead_threads=1 sliced_threads=0 nr=0 decimate=1 interlaced=0 bluray_compat=0 constrained_intra=0 bframes=8 b_pyramid=2 b_adapt=2 b_bias=0 direct=3 weightb=1 open_gop=0 weightp=2 keyint=250 keyint_min=25 scenecut=40 intra_refresh=0 rc_lookahead=60 rc=abr mbtree=1 bitrate=15000 ratetol=1.0 qcomp=0.60 qpmin=0 qpmax=69 qpstep=4 ip_ratio=1.40 aq=1:1.00
Output #0, matroska, to 'Output/x264/encoded/old_town_cross_2160p50veryslow15000k.mkv':
  Metadata:
    encoder         : Lavf57.57.100
    Stream #0:0: Video: h264 (libx264) (H264 / 0x34363248), yuv420p, 3840x2160 [SAR 1:1 DAR 16:9], q=-1--1, 15000 kb/s, 50 fps, 1k tbn, 50 tbc
    Metadata:
      encoder         : Lavc57.66.101 libx264
    Side data:
      cpb: bitrate max/min/avg: 0/0/15000000 buffer size: 0 vbv_delay: -1
Stream mapping:
  Stream #0:0 -> #0:0 (rawvideo (native) -> h264 (libx264))
Press [q] to stop, [?] for help
frame=   60 fps=0.0 q=0.0 size=       0kB time=00:00:00.00 bitrate=N/A speed=   0x    frame=   72 fps=8.0 q=0.0 size=       0kB time=00:00:00.00 bitrate=N/A speed=   0x    frame=   77 fps=5.7 q=30.0 size=       1kB time=-00:00:00.01 bitrate=N/A speed=N/A    frame=   78 fps=5.3 q=30.0 size=       1kB time=00:00:00.00 bitrate=5888.0kbits/s speed=6.78e-05x    frame=   79 fps=5.2 q=30.0 size=       1kB time=00:00:00.02 bitrate= 280.4kbits/s speed=0.00137x    frame=   82 fps=5.2 q=34.0 size=       1kB time=00:00:00.08 bitrate=  72.7kbits/s speed=0.0051x    frame=   83 fps=4.8 q=31.0 size=       1kB time=00:00:00.10 bitrate=  58.3kbits/s speed=0.00584x    frame=   84 fps=4.4 q=32.0 size=       1kB time=00:00:00.12 bitrate=  48.7kbits/s speed=0.0063x    frame=   86 fps=4.3 q=34.0 size=       1kB time=00:00:00.16 bitrate=  36.6kbits/s speed=0.00814x    frame=   89 fps=4.3 q=37.0 size=       1kB time=00:00:00.22 bitrate=  26.6kbits/s speed=0.0106x    frame=   90 fps=4.2 q=46.0 size=       1kB time=00:00:00.24 bitrate=  24.4kbits/s speed=0.0111x    frame=   97 fps=4.1 q=44.0 size=       1kB time=00:00:00.38 bitrate=  15.5kbits/s speed=0.0163x    frame=  100 fps=4.1 q=47.0 size=       1kB time=00:00:00.44 bitrate=  13.4kbits/s speed=0.018x    frame=  105 fps=4.2 q=47.0 size=       1kB time=00:00:00.54 bitrate=  10.9kbits/s speed=0.0214x    frame=  106 fps=4.1 q=47.0 size=       1kB time=00:00:00.56 bitrate=  10.5kbits/s speed=0.0215x    frame=  108 fps=4.0 q=46.0 size=       1kB time=00:00:00.60 bitrate=   9.8kbits/s speed=0.0221x    frame=  113 fps=4.0 q=46.0 size=       1kB time=00:00:00.70 bitrate=   8.4kbits/s speed=0.0249x    frame=  114 fps=3.9 q=46.0 size=       1kB time=00:00:00.72 bitrate=   8.2kbits/s speed=0.0247x    frame=  117 fps=3.9 q=44.0 size=       1kB time=00:00:00.78 bitrate=   7.5kbits/s speed=0.0259x    frame=  122 fps=3.8 q=44.0 size=       1kB time=00:00:00.88 bitrate=   6.7kbits/s speed=0.0278x    frame=  123 fps=3.7 q=44.0 size=       1kB time=00:00:00.90 bitrate=   6.5kbits/s speed=0.0273x    frame=  128 fps=3.8 q=43.0 size=       1kB time=00:00:01.00 bitrate=   5.9kbits/s speed=0.0296x    frame=  129 fps=3.6 q=43.0 size=       1kB time=00:00:01.02 bitrate=   5.8kbits/s speed=0.0287x    frame=  132 fps=3.6 q=42.0 size=       1kB time=00:00:01.08 bitrate=   5.4kbits/s speed=0.0294x    frame=  135 fps=3.5 q=41.0 size=       1kB time=00:00:01.14 bitrate=   5.2kbits/s speed=0.0297x    frame=  138 fps=3.5 q=41.0 size=       1kB time=00:00:01.20 bitrate=   4.9kbits/s speed=0.0304x    frame=  140 fps=3.4 q=41.0 size=       1kB time=00:00:01.24 bitrate=   4.7kbits/s speed=0.0301x    frame=  144 fps=3.4 q=40.0 size=       1kB time=00:00:01.32 bitrate=   4.5kbits/s speed=0.0313x    frame=  146 fps=3.3 q=40.0 size=       1kB time=00:00:01.36 bitrate=   4.3kbits/s speed=0.0309x    frame=  148 fps=3.3 q=40.0 size=       1kB time=00:00:01.40 bitrate=   4.2kbits/s speed=0.0314x    frame=  149 fps=3.2 q=39.0 size=       1kB time=00:00:01.42 bitrate=   4.1kbits/s speed=0.0309x    frame=  153 fps=3.3 q=39.0 size=       1kB time=00:00:01.50 bitrate=   3.9kbits/s speed=0.0319x    frame=  155 fps=3.1 q=39.0 size=       1kB time=00:00:01.54 bitrate=   3.8kbits/s speed=0.0312x    frame=  157 fps=3.1 q=39.0 size=       1kB time=00:00:01.58 bitrate=   3.7kbits/s speed=0.0316x    frame=  158 fps=3.1 q=38.0 size=       1kB time=00:00:01.60 bitrate=   3.7kbits/s speed=0.0317x    frame=  160 fps=3.1 q=37.0 size=       1kB time=00:00:01.64 bitrate=   3.6kbits/s speed=0.0322x    frame=  161 fps=3.1 q=38.0 size=       1kB time=00:00:01.66 bitrate=   3.5kbits/s speed=0.0315x    frame=  163 fps=3.1 q=38.0 size=       1kB time=00:00:01.70 bitrate=   3.5kbits/s speed=0.0319x    frame=  165 fps=3.0 q=38.0 size=       1kB time=00:00:01.74 bitrate=   3.4kbits/s speed=0.032x    frame=  167 fps=3.0 q=38.0 size=       1kB time=00:00:01.78 bitrate=   3.3kbits/s speed=0.0315x    frame=  173 fps=2.9 q=37.0 size=       1kB time=00:00:01.90 bitrate=   3.1kbits/s speed=0.032x    frame=  174 fps=2.9 q=37.0 size=       1kB time=00:00:01.92 bitrate=   3.1kbits/s speed=0.0321x    frame=  176 fps=2.9 q=37.0 size=       1kB time=00:00:01.96 bitrate=   3.0kbits/s speed=0.0318x    frame=  180 fps=2.9 q=37.0 size=       1kB time=00:00:02.04 bitrate=   2.9kbits/s speed=0.0325x    frame=  182 fps=2.8 q=36.0 size=       1kB time=00:00:02.08 bitrate=   2.8kbits/s speed=0.0319x    frame=  184 fps=2.8 q=36.0 size=       1kB time=00:00:02.12 bitrate=   2.8kbits/s speed=0.032x    frame=  186 fps=2.8 q=36.0 size=       1kB time=00:00:02.16 bitrate=   2.7kbits/s speed=0.0323x    frame=  188 fps=2.8 q=36.0 size=       1kB time=00:00:02.20 bitrate=   2.7kbits/s speed=0.0323x    frame=  190 fps=2.7 q=36.0 size=       1kB time=00:00:02.24 bitrate=   2.6kbits/s speed=0.0319x    frame=  192 fps=2.7 q=36.0 size=       1kB time=00:00:02.28 bitrate=   2.6kbits/s speed=0.0322x    frame=  193 fps=2.7 q=36.0 size=       1kB time=00:00:02.30 bitrate=   2.6kbits/s speed=0.032x    frame=  194 fps=2.7 q=36.0 size=       1kB time=00:00:02.32 bitrate=   2.5kbits/s speed=0.032x    frame=  196 fps=2.7 q=35.0 size=       1kB time=00:00:02.36 bitrate=   2.5kbits/s speed=0.0321x    frame=  199 fps=2.6 q=35.0 size=       1kB time=00:00:02.42 bitrate=   2.4kbits/s speed=0.0322x    frame=  201 fps=2.6 q=35.0 size=       1kB time=00:00:02.46 bitrate=   2.4kbits/s speed=0.0322x    frame=  202 fps=2.6 q=35.0 size=       1kB time=00:00:02.48 bitrate=   2.4kbits/s speed=0.0319x    frame=  204 fps=2.6 q=35.0 size=       1kB time=00:00:02.52 bitrate=   2.3kbits/s speed=0.0321x    frame=  207 fps=2.6 q=35.0 size=       1kB time=00:00:02.58 bitrate=   2.3kbits/s speed=0.0324x    frame=  208 fps=2.6 q=35.0 size=       1kB time=00:00:02.60 bitrate=   2.3kbits/s speed=0.032x    frame=  209 fps=2.5 q=35.0 size=       1kB time=00:00:02.62 bitrate=   2.2kbits/s speed=0.0318x    frame=  211 fps=2.5 q=35.0 size=    5135kB time=00:00:02.66 bitrate=15809.8kbits/s speed=0.0319x    frame=  214 fps=2.5 q=35.0 size=    5135kB time=00:00:02.72 bitrate=15461.2kbits/s speed=0.0323x    frame=  215 fps=2.5 q=35.0 size=    5135kB time=00:00:02.74 bitrate=15348.4kbits/s speed=0.0317x    frame=  218 fps=2.5 q=34.0 size=    5135kB time=00:00:02.80 bitrate=15019.6kbits/s speed=0.0319x    frame=  219 fps=2.5 q=34.0 size=    5135kB time=00:00:02.82 bitrate=14913.1kbits/s speed=0.0319x    frame=  220 fps=2.5 q=34.0 size=    5135kB time=00:00:02.84 bitrate=14808.1kbits/s speed=0.0319x    frame=  221 fps=2.5 q=34.0 size=    5135kB time=00:00:02.86 bitrate=14704.6kbits/s speed=0.0319x    frame=  222 fps=2.5 q=34.0 size=    5135kB time=00:00:02.88 bitrate=14602.5kbits/s speed=0.0318x    frame=  224 fps=2.4 q=34.0 size=    5135kB time=00:00:02.92 bitrate=14402.6kbits/s speed=0.0318x    frame=  225 fps=2.4 q=34.0 size=    5135kB time=00:00:02.94 bitrate=14304.6kbits/s speed=0.0319x    frame=  226 fps=2.4 q=34.0 size=    5135kB time=00:00:02.96 bitrate=14208.0kbits/s speed=0.0319x    frame=  228 fps=2.4 q=34.0 size=    5135kB time=00:00:03.00 bitrate=14018.6kbits/s speed=0.0315x    frame=  230 fps=2.4 q=34.0 size=    5135kB time=00:00:03.04 bitrate=13834.2kbits/s speed=0.0316x    frame=  233 fps=2.4 q=34.0 size=    5135kB time=00:00:03.10 bitrate=13566.5kbits/s speed=0.0318x    frame=  234 fps=2.4 q=34.0 size=    5135kB time=00:00:03.12 bitrate=13479.6kbits/s speed=0.0314x    frame=  239 fps=2.4 q=34.0 size=    5135kB time=00:00:03.22 bitrate=13061.1kbits/s speed=0.0317x    frame=  240 fps=2.3 q=34.0 size=    5135kB time=00:00:03.24 bitrate=12980.5kbits/s speed=0.0314x    frame=  245 fps=2.4 q=33.0 size=    5135kB time=00:00:03.34 bitrate=12592.0kbits/s speed=0.0321x    frame=  246 fps=2.3 q=33.0 size=    5135kB time=00:00:03.36 bitrate=12517.1kbits/s speed=0.0315x    frame=  247 fps=2.3 q=33.0 size=    5135kB time=00:00:03.38 bitrate=12443.0kbits/s speed=0.0313x    frame=  249 fps=2.3 q=33.0 size=    5135kB time=00:00:03.42 bitrate=12297.5kbits/s speed=0.0314x    frame=  251 fps=2.3 q=33.0 size=    5135kB time=00:00:03.46 bitrate=12155.4kbits/s speed=0.0315x    frame=  253 fps=2.3 q=33.0 size=    5135kB time=00:00:03.50 bitrate=12016.5kbits/s speed=0.0314x    frame=  255 fps=2.3 q=33.0 size=    5135kB time=00:00:03.54 bitrate=11880.8kbits/s speed=0.0315x    frame=  257 fps=2.3 q=33.0 size=    5135kB time=00:00:03.58 bitrate=11748.1kbits/s speed=0.0316x    frame=  259 fps=2.3 q=33.0 size=    5135kB time=00:00:03.62 bitrate=11618.3kbits/s speed=0.0315x    frame=  260 fps=2.2 q=33.0 size=    5135kB time=00:00:03.64 bitrate=11554.5kbits/s speed=0.0312x    frame=  262 fps=2.2 q=33.0 size=    5135kB time=00:00:03.68 bitrate=11428.9kbits/s speed=0.0313x    frame=  266 fps=2.2 q=33.0 size=    5135kB time=00:00:03.76 bitrate=11185.8kbits/s speed=0.0313x    frame=  267 fps=2.2 q=33.0 size=    5135kB time=00:00:03.78 bitrate=11126.7kbits/s speed=0.0313x    frame=  269 fps=2.2 q=33.0 size=    5135kB time=00:00:03.82 bitrate=11010.2kbits/s speed=0.0311x    frame=  271 fps=2.2 q=33.0 size=    5135kB time=00:00:03.86 bitrate=10896.1kbits/s speed=0.0312x    frame=  275 fps=2.2 q=33.0 size=    5135kB time=00:00:03.94 bitrate=10674.9kbits/s speed=0.031x    frame=  278 fps=2.2 q=33.0 size=    5135kB time=00:00:04.00 bitrate=10514.8kbits/s speed=0.031x    frame=  280 fps=2.2 q=33.0 size=    5135kB time=00:00:04.04 bitrate=10410.8kbits/s speed=0.0311x    frame=  284 fps=2.1 q=33.0 size=    5135kB time=00:00:04.12 bitrate=10208.7kbits/s speed=0.031x    frame=  286 fps=2.1 q=33.0 size=    5135kB time=00:00:04.16 bitrate=10110.5kbits/s speed=0.0312x    frame=  287 fps=2.1 q=33.0 size=    5135kB time=00:00:04.18 bitrate=10062.2kbits/s speed=0.031x    frame=  289 fps=2.1 q=33.0 size=    5135kB time=00:00:04.22 bitrate=9966.8kbits/s speed=0.031x    frame=  292 fps=2.1 q=33.0 size=    5135kB time=00:00:04.28 bitrate=9827.1kbits/s speed=0.0313x    frame=  293 fps=2.1 q=33.0 size=    5135kB time=00:00:04.30 bitrate=9781.4kbits/s speed=0.031x    frame=  295 fps=2.1 q=33.0 size=    5135kB time=00:00:04.34 bitrate=9691.3kbits/s speed=0.0308x    frame=  296 fps=2.1 q=33.0 size=    5135kB time=00:00:04.36 bitrate=9646.8kbits/s speed=0.0308x    frame=  297 fps=2.1 q=32.0 size=    5135kB time=00:00:04.38 bitrate=9602.8kbits/s speed=0.0309x    frame=  301 fps=2.1 q=32.0 size=    5135kB time=00:00:04.46 bitrate=9430.6kbits/s speed=0.031x    frame=  303 fps=2.1 q=32.0 size=    5135kB time=00:00:04.50 bitrate=9346.8kbits/s speed=0.0306x    frame=  304 fps=2.1 q=33.0 size=    5135kB time=00:00:04.52 bitrate=9305.4kbits/s speed=0.0306x    frame=  306 fps=2.1 q=32.0 size=    5135kB time=00:00:04.56 bitrate=9223.8kbits/s speed=0.0308x    frame=  309 fps=2.1 q=32.0 size=    5135kB time=00:00:04.62 bitrate=9104.1kbits/s speed=0.0308x    frame=  310 fps=2.0 q=32.0 size=    5135kB time=00:00:04.64 bitrate=9064.8kbits/s speed=0.0305x    frame=  312 fps=2.0 q=32.0 size=    5135kB time=00:00:04.68 bitrate=8987.4kbits/s speed=0.0306x    frame=  313 fps=2.0 q=32.0 size=    5135kB time=00:00:04.70 bitrate=8949.1kbits/s speed=0.0302x    frame=  318 fps=2.0 q=32.0 size=    5135kB time=00:00:04.80 bitrate=8762.7kbits/s speed=0.0301x    frame=  320 fps=2.0 q=30.0 size=    5135kB time=00:00:04.84 bitrate=8690.3kbits/s speed=0.0302x    frame=  324 fps=2.0 q=33.0 size=    5135kB time=00:00:04.92 bitrate=8549.0kbits/s speed=0.0303x    frame=  326 fps=2.0 q=33.0 size=    8432kB time=00:00:04.96 bitrate=13923.2kbits/s speed=0.0303x    frame=  329 fps=2.0 q=33.0 size=    8432kB time=00:00:05.02 bitrate=13756.8kbits/s speed=0.0305x    frame=  332 fps=2.0 q=33.0 size=    8432kB time=00:00:05.08 bitrate=13594.4kbits/s speed=0.0307x    frame=  333 fps=2.0 q=33.0 size=    8432kB time=00:00:05.10 bitrate=13541.1kbits/s speed=0.0308x    frame=  335 fps=2.0 q=33.0 size=    8432kB time=00:00:05.14 bitrate=13435.7kbits/s speed=0.0309x    frame=  336 fps=2.0 q=34.0 size=    8432kB time=00:00:05.16 bitrate=13383.6kbits/s speed=0.0307x    frame=  340 fps=2.0 q=34.0 size=    8432kB time=00:00:05.24 bitrate=13179.3kbits/s speed=0.0311x    frame=  342 fps=2.0 q=34.0 size=    8432kB time=00:00:05.28 bitrate=13079.5kbits/s speed=0.031x    frame=  345 fps=2.0 q=34.0 size=    8432kB time=00:00:05.34 bitrate=12932.6kbits/s speed=0.031x    frame=  347 fps=2.0 q=34.0 size=    8432kB time=00:00:05.38 bitrate=12836.4kbits/s speed=0.0311x    frame=  351 fps=2.0 q=34.0 size=    8432kB time=00:00:05.46 bitrate=12648.4kbits/s speed=0.0312x    frame=  354 fps=2.0 q=34.0 size=    8432kB time=00:00:05.52 bitrate=12510.9kbits/s speed=0.0312x    frame=  357 fps=2.0 q=33.0 size=    8432kB time=00:00:05.58 bitrate=12376.4kbits/s speed=0.0314x    frame=  360 fps=2.0 q=34.0 size=    8432kB time=00:00:05.64 bitrate=12244.8kbits/s speed=0.0314x    frame=  363 fps=2.0 q=33.0 size=    8432kB time=00:00:05.70 bitrate=12115.9kbits/s speed=0.0312x    frame=  365 fps=2.0 q=33.0 size=    8432kB time=00:00:05.74 bitrate=12031.5kbits/s speed=0.0313x    frame=  369 fps=2.0 q=33.0 size=    8432kB time=00:00:05.82 bitrate=11866.2kbits/s speed=0.0315x    frame=  370 fps=2.0 q=33.0 size=    8432kB time=00:00:05.84 bitrate=11825.5kbits/s speed=0.0315x    frame=  372 fps=2.0 q=33.0 size=    8432kB time=00:00:05.88 bitrate=11745.1kbits/s speed=0.0313x    frame=  374 fps=2.0 q=33.0 size=    8432kB time=00:00:05.92 bitrate=11665.8kbits/s speed=0.0314x    frame=  376 fps=2.0 q=33.0 size=    8432kB time=00:00:05.96 bitrate=11587.5kbits/s speed=0.0315x    frame=  377 fps=2.0 q=33.0 size=    8432kB time=00:00:05.98 bitrate=11548.7kbits/s speed=0.0312x    frame=  378 fps=2.0 q=33.0 size=    8432kB time=00:00:06.00 bitrate=11510.2kbits/s speed=0.0312x    frame=  379 fps=2.0 q=33.0 size=    8432kB time=00:00:06.02 bitrate=11472.0kbits/s speed=0.0312x    frame=  383 fps=2.0 q=33.0 size=    8432kB time=00:00:06.10 bitrate=11321.6kbits/s speed=0.0314x    frame=  384 fps=2.0 q=33.0 size=    8432kB time=00:00:06.12 bitrate=11284.6kbits/s speed=0.0313x    frame=  385 fps=2.0 q=33.0 size=    8432kB time=00:00:06.14 bitrate=11247.8kbits/s speed=0.0313x    frame=  386 fps=1.9 q=33.0 size=    8432kB time=00:00:06.16 bitrate=11211.3kbits/s speed=0.0311x    frame=  388 fps=2.0 q=33.0 size=    8432kB time=00:00:06.20 bitrate=11139.0kbits/s speed=0.0312x    frame=  391 fps=1.9 q=33.0 size=    8432kB time=00:00:06.26 bitrate=11032.3kbits/s speed=0.0311x    frame=  392 fps=1.9 q=33.0 size=    8432kB time=00:00:06.28 bitrate=10997.1kbits/s speed=0.0311x    frame=  397 fps=1.9 q=33.0 size=    8432kB time=00:00:06.38 bitrate=10824.8kbits/s speed=0.0312x    frame=  398 fps=1.9 q=33.0 size=    8432kB time=00:00:06.40 bitrate=10791.0kbits/s speed=0.0311x    frame=  400 fps=1.9 q=33.0 size=    8432kB time=00:00:06.44 bitrate=10723.9kbits/s speed=0.0309x    frame=  402 fps=1.9 q=33.0 size=    8432kB time=00:00:06.48 bitrate=10657.8kbits/s speed=0.031x    frame=  406 fps=1.9 q=33.0 size=    8432kB time=00:00:06.56 bitrate=10527.8kbits/s speed=0.0309x    frame=  408 fps=1.9 q=33.0 size=    8432kB time=00:00:06.60 bitrate=10464.0kbits/s speed=0.031x    frame=  409 fps=1.9 q=33.0 size=    8432kB time=00:00:06.62 bitrate=10432.4kbits/s speed=0.0308x    frame=  411 fps=1.9 q=33.0 size=    8432kB time=00:00:06.66 bitrate=10369.8kbits/s speed=0.0309x    frame=  415 fps=1.9 q=33.0 size=    8432kB time=00:00:06.74 bitrate=10246.7kbits/s speed=0.0309x    frame=  417 fps=1.9 q=33.0 size=    8432kB time=00:00:06.78 bitrate=10186.2kbits/s speed=0.031x    frame=  418 fps=1.9 q=33.0 size=    8432kB time=00:00:06.80 bitrate=10156.3kbits/s speed=0.0307x    frame=  420 fps=1.9 q=33.0 size=    8432kB time=00:00:06.84 bitrate=10096.9kbits/s speed=0.0308x    frame=  424 fps=1.9 q=33.0 size=    8432kB time=00:00:06.92 bitrate=9980.2kbits/s speed=0.0308x    frame=  427 fps=1.9 q=33.0 size=    8432kB time=00:00:06.98 bitrate=9894.4kbits/s speed=0.0306x    frame=  429 fps=1.9 q=33.0 size=    8432kB time=00:00:07.02 bitrate=9838.0kbits/s speed=0.0307x    frame=  433 fps=1.9 q=33.0 size=    8432kB time=00:00:07.10 bitrate=9727.2kbits/s speed=0.0308x    frame=  434 fps=1.9 q=33.0 size=    8432kB time=00:00:07.12 bitrate=9699.9kbits/s speed=0.0307x    frame=  436 fps=1.9 q=33.0 size=    8432kB time=00:00:07.16 bitrate=9645.7kbits/s speed=0.0305x    frame=  438 fps=1.9 q=33.0 size=    8432kB time=00:00:07.20 bitrate=9592.1kbits/s speed=0.0305x    frame=  442 fps=1.9 q=33.0 size=    8432kB time=00:00:07.28 bitrate=9486.7kbits/s speed=0.0305x    frame=  443 fps=1.9 q=33.0 size=    8432kB time=00:00:07.30 bitrate=9460.7kbits/s speed=0.0305x    frame=  444 fps=1.9 q=33.0 size=    8432kB time=00:00:07.32 bitrate=9434.9kbits/s speed=0.0305x    frame=  445 fps=1.8 q=33.0 size=    8432kB time=00:00:07.34 bitrate=9409.2kbits/s speed=0.0304x    frame=  447 fps=1.8 q=33.0 size=    8432kB time=00:00:07.38 bitrate=9358.2kbits/s speed=0.0305x    frame=  451 fps=1.8 q=33.0 size=    8432kB time=00:00:07.46 bitrate=9257.9kbits/s speed=0.0305x    frame=  452 fps=1.8 q=33.0 size=    8432kB time=00:00:07.48 bitrate=9233.1kbits/s speed=0.0303x    frame=  454 fps=1.8 q=33.0 size=    8432kB time=00:00:07.52 bitrate=9184.0kbits/s speed=0.0304x    frame=  457 fps=1.8 q=33.0 size=   13565kB time=00:00:07.58 bitrate=14657.9kbits/s speed=0.0304x    frame=  458 fps=1.8 q=33.0 size=   13565kB time=00:00:07.60 bitrate=14619.3kbits/s speed=0.0303x    frame=  459 fps=1.8 q=33.0 size=   13565kB time=00:00:07.62 bitrate=14580.9kbits/s speed=0.0303x    frame=  463 fps=1.8 q=33.0 size=   13565kB time=00:00:07.70 bitrate=14429.5kbits/s speed=0.0302x    frame=  465 fps=1.8 q=33.0 size=   13565kB time=00:00:07.74 bitrate=14354.9kbits/s speed=0.0302x    frame=  469 fps=1.8 q=33.0 size=   13565kB time=00:00:07.82 bitrate=14208.1kbits/s speed=0.0303x    frame=  471 fps=1.8 q=33.0 size=   13565kB time=00:00:07.86 bitrate=14135.8kbits/s speed=0.0303x    frame=  472 fps=1.8 q=33.0 size=   13565kB time=00:00:07.88 bitrate=14099.9kbits/s speed=0.0301x    frame=  474 fps=1.8 q=33.0 size=   13565kB time=00:00:07.92 bitrate=14028.7kbits/s speed=0.0302x    frame=  478 fps=1.8 q=33.0 size=   13565kB time=00:00:08.00 bitrate=13888.4kbits/s speed=0.0303x    frame=  479 fps=1.8 q=33.0 size=   13565kB time=00:00:08.02 bitrate=13853.8kbits/s speed=0.0301x    frame=  481 fps=1.8 q=33.0 size=   13565kB time=00:00:08.06 bitrate=13785.1kbits/s speed=0.0301x    frame=  485 fps=1.8 q=33.0 size=   13565kB time=00:00:08.14 bitrate=13649.6kbits/s speed=0.0301x    frame=  488 fps=1.8 q=33.0 size=   13565kB time=00:00:08.20 bitrate=13549.7kbits/s speed=0.03x    frame=  490 fps=1.8 q=33.0 size=   13565kB time=00:00:08.24 bitrate=13484.0kbits/s speed=0.03x    frame=  494 fps=1.8 q=33.0 size=   13565kB time=00:00:08.32 bitrate=13354.3kbits/s speed=0.0302x    frame=  495 fps=1.8 q=33.0 size=   13565kB time=00:00:08.34 bitrate=13322.3kbits/s speed=0.03x    frame=  497 fps=1.8 q=33.0 size=   13565kB time=00:00:08.38 bitrate=13258.7kbits/s speed=0.03x    frame=  500 fps=1.8 q=33.0 size=   13565kB time=00:00:08.44 bitrate=13164.5kbits/s speed=0.03x    frame=  500 fps=1.5 q=-1.0 Lsize=   18156kB time=00:00:09.94 bitrate=14961.9kbits/s speed=0.0301x    
video:18152kB audio:0kB subtitle:0kB other streams:0kB global headers:0kB muxing overhead: 0.025523%
bench: utime=1259.384s
bench: maxrss=3682388kB
[libx264 @ 0x3a0c120] frame I:3     Avg QP:28.01  size:926307
[libx264 @ 0x3a0c120] frame P:63    Avg QP:33.24  size:107358
[libx264 @ 0x3a0c120] frame B:434   Avg QP:35.57  size: 20839
[libx264 @ 0x3a0c120] consecutive B-frames:  0.8%  0.0%  0.0%  1.6%  4.0%  3.6% 11.2% 17.6% 61.2%
[libx264 @ 0x3a0c120] mb I  I16..4:  5.8% 89.9%  4.3%
[libx264 @ 0x3a0c120] mb P  I16..4:  0.1%  0.5%  0.0%  P16..4: 50.0%  6.6% 11.9%  0.0%  0.0%    skip:30.8%
[libx264 @ 0x3a0c120] mb B  I16..4:  0.0%  0.0%  0.0%  B16..8: 48.6%  0.6%  0.1%  direct: 0.3%  skip:50.4%  L0:51.3% L1:48.5% BI: 0.2%
[libx264 @ 0x3a0c120] final ratefactor: 25.15
[libx264 @ 0x3a0c120] 8x8 transform intra:89.2% inter:66.7%
[libx264 @ 0x3a0c120] direct mvs  spatial:99.1% temporal:0.9%
[libx264 @ 0x3a0c120] coded y,uvDC,uvAC intra: 97.0% 87.2% 75.3% inter: 3.6% 2.3% 0.1%
[libx264 @ 0x3a0c120] i16 v,h,dc,p: 19% 22% 39% 20%
[libx264 @ 0x3a0c120] i8 v,h,dc,ddl,ddr,vr,hd,vl,hu:  6%  9%  3% 13% 16% 13% 17% 10% 12%
[libx264 @ 0x3a0c120] i4 v,h,dc,ddl,ddr,vr,hd,vl,hu:  4%  6%  1% 12% 16% 14% 19% 11% 16%
[libx264 @ 0x3a0c120] i8c dc,h,v,p: 54% 19% 12% 14%
[libx264 @ 0x3a0c120] Weighted P-Frames: Y:3.2% UV:1.6%
[libx264 @ 0x3a0c120] ref P L0: 47.7% 14.8% 19.0%  4.3%  4.1%  2.7%  2.7%  0.8%  0.8%  0.6%  0.6%  0.5%  0.5%  0.4%  0.4%  0.1%
[libx264 @ 0x3a0c120] ref B L0: 71.8%  9.6%  7.2%  2.4%  2.1%  1.9%  1.7%  0.6%  0.5%  0.5%  0.5%  0.4%  0.4%  0.3%  0.1%
[libx264 @ 0x3a0c120] ref B L1: 94.2%  5.8%
[libx264 @ 0x3a0c120] kb/s:14869.27
